<svg width="112" height="27" viewBox="0 0 112 27" fill="none" xmlns="http://www.w3.org/2000/svg">
<path d="M0.351164 12.798C0.351164 11.3073 0.654497 10.0073 1.26116 8.898C1.86783 7.77133 2.7085 6.90467 3.78316 6.298C4.85783 5.674 6.0885 5.362 7.47516 5.362C9.2605 5.362 10.7338 5.81267 11.8952 6.714C13.0738 7.598 13.8625 8.846 14.2612 10.458H10.3352C10.1272 9.834 9.77183 9.34867 9.26916 9.002C8.78383 8.638 8.17716 8.456 7.44916 8.456C6.40916 8.456 5.58583 8.83733 4.97916 9.6C4.3725 10.3453 4.06916 11.4113 4.06916 12.798C4.06916 14.1673 4.3725 15.2333 4.97916 15.996C5.58583 16.7413 6.40916 17.114 7.44916 17.114C8.9225 17.114 9.8845 16.4553 10.3352 15.138H14.2612C13.8625 16.698 13.0738 17.9373 11.8952 18.856C10.7165 19.7747 9.24316 20.234 7.47516 20.234C6.0885 20.234 4.85783 19.9307 3.78316 19.324C2.7085 18.7 1.86783 17.8333 1.26116 16.724C0.654497 15.5973 0.351164 14.2887 0.351164 12.798ZM25.0398 5.388C26.1318 5.388 27.1025 5.63067 27.9518 6.116C28.8011 6.584 29.4598 7.286 29.9278 8.222C30.4131 9.14067 30.6558 10.25 30.6558 11.55V20H27.0158V12.044C27.0158 10.9 26.7298 10.0247 26.1578 9.418C25.5858 8.794 24.8058 8.482 23.8178 8.482C22.8125 8.482 22.0151 8.794 21.4258 9.418C20.8538 10.0247 20.5678 10.9 20.5678 12.044V20H16.9278V0.76H20.5678V7.39C21.0358 6.766 21.6598 6.28067 22.4398 5.934C23.2198 5.57 24.0865 5.388 25.0398 5.388ZM33.1812 12.746C33.1812 11.29 33.4672 9.99867 34.0392 8.872C34.6286 7.74533 35.4172 6.87867 36.4052 6.272C37.4106 5.66533 38.5286 5.362 39.7592 5.362C40.8339 5.362 41.7699 5.57867 42.5672 6.012C43.3819 6.44533 44.0319 6.99133 44.5172 7.65V5.596H48.1832V20H44.5172V17.894C44.0492 18.57 43.3992 19.1333 42.5672 19.584C41.7526 20.0173 40.8079 20.234 39.7332 20.234C38.5199 20.234 37.4106 19.922 36.4052 19.298C35.4172 18.674 34.6286 17.7987 34.0392 16.672C33.4672 15.528 33.1812 14.2193 33.1812 12.746ZM44.5172 12.798C44.5172 11.914 44.3439 11.16 43.9972 10.536C43.6506 9.89467 43.1826 9.40933 42.5932 9.08C42.0039 8.73333 41.3712 8.56 40.6952 8.56C40.0192 8.56 39.3952 8.72467 38.8232 9.054C38.2512 9.38333 37.7832 9.86867 37.4192 10.51C37.0726 11.134 36.8992 11.8793 36.8992 12.746C36.8992 13.6127 37.0726 14.3753 37.4192 15.034C37.7832 15.6753 38.2512 16.1693 38.8232 16.516C39.4126 16.8627 40.0366 17.036 40.6952 17.036C41.3712 17.036 42.0039 16.8713 42.5932 16.542C43.1826 16.1953 43.6506 15.71 43.9972 15.086C44.3439 14.4447 44.5172 13.682 44.5172 12.798ZM55.9763 8.586V15.554C55.9763 16.0393 56.089 16.3947 56.3143 16.62C56.557 16.828 56.9557 16.932 57.5103 16.932H59.2003V20H56.9123C53.8443 20 52.3103 18.5093 52.3103 15.528V8.586H50.5943V5.596H52.3103V2.034H55.9763V5.596H59.2003V8.586H55.9763ZM61.4284 12.928C61.4284 11.472 61.7144 10.198 62.2864 9.106C62.8757 8.014 63.6817 7.17333 64.7044 6.584C65.7444 5.99467 66.9231 5.7 68.2404 5.7C69.7311 5.7 70.9964 6.064 72.0364 6.792C73.0764 7.52 73.8044 8.44733 74.2204 9.574V5.882H75.3904V20H74.2204V16.282C73.8044 17.426 73.0677 18.3707 72.0104 19.116C70.9704 19.844 69.7137 20.208 68.2404 20.208C66.9231 20.208 65.7444 19.9133 64.7044 19.324C63.6817 18.7173 62.8757 17.868 62.2864 16.776C61.7144 15.6667 61.4284 14.384 61.4284 12.928ZM74.2204 12.928C74.2204 11.6973 73.9604 10.614 73.4404 9.678C72.9377 8.72467 72.2444 7.99667 71.3604 7.494C70.4764 6.974 69.4884 6.714 68.3964 6.714C67.2524 6.714 66.2471 6.96533 65.3804 7.468C64.5137 7.95333 63.8377 8.664 63.3524 9.6C62.8671 10.536 62.6244 11.6453 62.6244 12.928C62.6244 14.2107 62.8671 15.32 63.3524 16.256C63.8377 17.192 64.5137 17.9113 65.3804 18.414C66.2644 18.9167 67.2697 19.168 68.3964 19.168C69.4884 19.168 70.4764 18.9167 71.3604 18.414C72.2617 17.894 72.9637 17.166 73.4664 16.23C73.9691 15.2767 74.2204 14.176 74.2204 12.928ZM80.8206 9.6C81.2192 8.456 81.9386 7.52 82.9786 6.792C84.0359 6.064 85.3099 5.7 86.8006 5.7C88.1179 5.7 89.2879 5.99467 90.3106 6.584C91.3506 7.17333 92.1566 8.014 92.7286 9.106C93.3179 10.198 93.6126 11.472 93.6126 12.928C93.6126 14.384 93.3179 15.6667 92.7286 16.776C92.1566 17.868 91.3506 18.7173 90.3106 19.324C89.2879 19.9133 88.1179 20.208 86.8006 20.208C85.3272 20.208 84.0619 19.844 83.0046 19.116C81.9646 18.3707 81.2366 17.4347 80.8206 16.308V26.656H79.6506V5.882H80.8206V9.6ZM92.4166 12.928C92.4166 11.6453 92.1739 10.536 91.6886 9.6C91.2032 8.664 90.5186 7.95333 89.6346 7.468C88.7679 6.96533 87.7626 6.714 86.6186 6.714C85.5266 6.714 84.5386 6.974 83.6546 7.494C82.7706 7.99667 82.0772 8.72467 81.5746 9.678C81.0719 10.614 80.8206 11.6973 80.8206 12.928C80.8206 14.176 81.0719 15.2767 81.5746 16.23C82.0772 17.166 82.7706 17.894 83.6546 18.414C84.5386 18.9167 85.5266 19.168 86.6186 19.168C87.7626 19.168 88.7679 18.9167 89.6346 18.414C90.5186 17.9113 91.2032 17.192 91.6886 16.256C92.1739 15.32 92.4166 14.2107 92.4166 12.928ZM98.3147 9.6C98.7134 8.456 99.4327 7.52 100.473 6.792C101.53 6.064 102.804 5.7 104.295 5.7C105.612 5.7 106.782 5.99467 107.805 6.584C108.845 7.17333 109.651 8.014 110.223 9.106C110.812 10.198 111.107 11.472 111.107 12.928C111.107 14.384 110.812 15.6667 110.223 16.776C109.651 17.868 108.845 18.7173 107.805 19.324C106.782 19.9133 105.612 20.208 104.295 20.208C102.821 20.208 101.556 19.844 100.499 19.116C99.4587 18.3707 98.7307 17.4347 98.3147 16.308V26.656H97.1447V5.882H98.3147V9.6ZM109.911 12.928C109.911 11.6453 109.668 10.536 109.183 9.6C108.697 8.664 108.013 7.95333 107.129 7.468C106.262 6.96533 105.257 6.714 104.113 6.714C103.021 6.714 102.033 6.974 101.149 7.494C100.265 7.99667 99.5714 8.72467 99.0687 9.678C98.566 10.614 98.3147 11.6973 98.3147 12.928C98.3147 14.176 98.566 15.2767 99.0687 16.23C99.5714 17.166 100.265 17.894 101.149 18.414C102.033 18.9167 103.021 19.168 104.113 19.168C105.257 19.168 106.262 18.9167 107.129 18.414C108.013 17.9113 108.697 17.192 109.183 16.256C109.668 15.32 109.911 14.2107 109.911 12.928Z" fill="#4D68C1"/>
</svg>
