<svg width="20" height="20" viewBox="0 0 20 20" fill="none" xmlns="http://www.w3.org/2000/svg">
<g clip-path="url(#clip0)">
<path d="M19.9479 7.67197C19.8169 7.26699 19.4577 6.97935 19.0328 6.94105L13.2602 6.4169L10.9776 1.0742C10.8093 0.682654 10.426 0.429199 10.0001 0.429199C9.57422 0.429199 9.19091 0.682654 9.0226 1.07512L6.73998 6.4169L0.966514 6.94105C0.542309 6.98027 0.184023 7.26699 0.0523365 7.67197C-0.0793503 8.07695 0.0422654 8.52114 0.363166 8.80115L4.72653 12.6278L3.43988 18.2956C3.34573 18.7123 3.50747 19.1431 3.85325 19.393C4.0391 19.5273 4.25655 19.5956 4.47582 19.5956C4.66488 19.5956 4.85242 19.5447 5.02073 19.444L10.0001 16.468L14.9776 19.444C15.3419 19.6631 15.801 19.6431 16.146 19.393C16.492 19.1423 16.6536 18.7114 16.5594 18.2956L15.2728 12.6278L19.6361 8.80191C19.957 8.52114 20.0796 8.07771 19.9479 7.67197Z" fill="#FFC107"/>
</g>
<defs>
<clipPath id="clip0">
<rect width="20" height="20" fill="white"/>
</clipPath>
</defs>
</svg>
